<?xml version="1.0" encoding="UTF-8"?><!DOCTYPE svg PUBLIC "-//W3C//DTD SVG 1.1//EN" "http://www.w3.org/Graphics/SVG/1.1/DTD/svg11.dtd"><svg xmlns="http://www.w3.org/2000/svg" xmlns:xlink="http://www.w3.org/1999/xlink"><defs>
		<clipPath id="clip0_3134_24054">
			<rect width="79" height="22" fill="white"/>
		</clipPath>
	</defs><symbol id="arrow-down" viewBox="0 0 16 16">
	<path d="M13.5302 4.96967c.2929.29289.2929.76777 0 1.06066L8.53021 11.0303c-.2929.2929-.76777.2929-1.06066 0l-5-4.99997c-.2929-.29289-.2929-.76777 0-1.06066.29289-.29289.76777-.29289 1.06066 0l4.46967 4.46967 4.46962-4.46967c.2929-.29289.7678-.29289 1.0607 0Z"/>
</symbol><symbol id="arrow-right" viewBox="0 0 24 24">
	<path d="M11.4697 5.46967c.2929-.29289.7677-.29289 1.0606 0l6 6.00003c.2929.2929.2929.7677 0 1.0606l-6 6c-.2929.2929-.7677.2929-1.0606 0-.2929-.2929-.2929-.7677 0-1.0606l4.7196-4.7197H6c-.41421 0-.75-.3358-.75-.75s.33579-.75.75-.75h10.1893l-4.7196-4.71967c-.2929-.29289-.2929-.76777 0-1.06066Z"/>
</symbol><symbol id="button" viewBox="0 0 40 40">
	<path fill-rule="evenodd" clip-rule="evenodd" d="M20.75 14C20.75 13.5858 20.4142 13.25 20 13.25C19.5858 13.25 19.25 13.5858 19.25 14V19.25H14C13.5858 19.25 13.25 19.5858 13.25 20C13.25 20.4142 13.5858 20.75 14 20.75H19.25V26C19.25 26.4142 19.5858 26.75 20 26.75C20.4142 26.75 20.75 26.4142 20.75 26V20.75H26C26.4142 20.75 26.75 20.4142 26.75 20C26.75 19.5858 26.4142 19.25 26 19.25H20.75V14Z" fill="#000B26" fill-opacity="0.4"/>
	<rect x="0.5" y="0.5" width="39" height="39" rx="7.5" stroke="#000B26" stroke-opacity="0.24"/>
</symbol><symbol id="calendar" viewBox="0 0 24 24">
	<path fill-rule="evenodd" clip-rule="evenodd" d="M8 2.125C8.41421 2.125 8.75 2.46079 8.75 2.875V4H15.25V2.875C15.25 2.46079 15.5858 2.125 16 2.125C16.4142 2.125 16.75 2.46079 16.75 2.875V4H18C19.6569 4 21 5.34315 21 7V19C21 20.6569 19.6569 22 18 22H6C4.34315 22 3 20.6569 3 19V7C3 5.34315 4.34315 4 6 4H7.25V2.875C7.25 2.46079 7.58579 2.125 8 2.125ZM15.25 5.5V5.875C15.25 6.28921 15.5858 6.625 16 6.625C16.4142 6.625 16.75 6.28921 16.75 5.875V5.5H18C18.8284 5.5 19.5 6.17157 19.5 7V8.25H4.5V7C4.5 6.17157 5.17157 5.5 6 5.5H7.25V5.875C7.25 6.28921 7.58579 6.625 8 6.625C8.41421 6.625 8.75 6.28921 8.75 5.875V5.5H15.25ZM4.5 9.75V19C4.5 19.8284 5.17157 20.5 6 20.5H18C18.8284 20.5 19.5 19.8284 19.5 19V9.75H4.5ZM9 13C9 13.5523 8.55228 14 8 14C7.44772 14 7 13.5523 7 13C7 12.4477 7.44772 12 8 12C8.55228 12 9 12.4477 9 13ZM8 18C8.55228 18 9 17.5523 9 17C9 16.4477 8.55228 16 8 16C7.44772 16 7 16.4477 7 17C7 17.5523 7.44772 18 8 18ZM13 13C13 13.5523 12.5523 14 12 14C11.4477 14 11 13.5523 11 13C11 12.4477 11.4477 12 12 12C12.5523 12 13 12.4477 13 13ZM12 18C12.5523 18 13 17.5523 13 17C13 16.4477 12.5523 16 12 16C11.4477 16 11 16.4477 11 17C11 17.5523 11.4477 18 12 18ZM17 13C17 13.5523 16.5523 14 16 14C15.4477 14 15 13.5523 15 13C15 12.4477 15.4477 12 16 12C16.5523 12 17 12.4477 17 13ZM16 18C16.5523 18 17 17.5523 17 17C17 16.4477 16.5523 16 16 16C15.4477 16 15 16.4477 15 17C15 17.5523 15.4477 18 16 18Z" fill="#000B26" fill-opacity="0.72"/>
</symbol><symbol id="cdek" viewBox="0 0 79 22">
	<g clip-path="url(#clip0_3134_24054)">
		<path fill-rule="evenodd" clip-rule="evenodd" d="M12.3785 16.3492H8.97192C3.65773 16.3492 7.51849 5.23292 11.9924 5.23292H17.3747C18.2377 5.23292 19.7593 5.38951 20.5088 3.28702L21.667 0.0214844H14.2861C10.2892 0.0214844 7.17781 1.40822 4.92951 3.73436C1.04606 7.71561 -0.271136 13.9336 0.659985 16.9083C1.54568 19.6594 3.95297 21.4711 7.72285 21.5159L10.6525 21.5382H14.2634L15.1491 18.9213C15.8077 17.0649 14.3316 16.3492 12.3785 16.3492ZM53.8474 11.7416L54.9601 8.18534H43.0827C41.1069 8.18534 40.2212 8.72214 39.8806 9.84043L38.7678 13.3968H50.6452C52.621 13.3968 53.5067 12.86 53.8474 11.7416ZM36.9964 18.0043L35.8836 21.5606H47.761C49.7141 21.5606 50.6225 21.0238 50.9632 19.9055L52.076 16.3492H40.1986C38.2455 16.3492 37.3597 16.886 36.9964 18.0043ZM56.618 3.60016L57.731 0.0438508H45.8534C43.8776 0.0438508 42.9919 0.58065 42.6513 1.69899L41.5384 5.25529H53.4159C55.3692 5.25529 56.2546 4.71849 56.618 3.60016ZM38.677 4.31589C38.1773 1.00562 36.3832 0.0438508 32.0228 0.0438508H24.0743L19.4414 13.3968H22.371C24.1197 13.3968 25.0054 13.4191 25.9365 10.9588L27.8669 5.23292H30.8192C33.34 5.23292 32.7723 8.34191 31.5005 11.3614C30.365 14.023 28.3892 16.3715 26.0046 16.3715H21.0765C19.1007 16.3715 18.1923 16.9083 17.8289 18.0267L16.6026 21.583H20.2135L23.7563 21.5606C26.8903 21.5382 29.4566 21.3146 32.4543 18.6529C35.6338 15.8124 39.3128 8.52081 38.677 4.31589ZM78.6018 0.0214844H71.7206L65.248 6.79858C64.4984 7.58141 63.7263 8.36423 62.9767 9.28131H62.9085L66.1334 0.0214844H60.5244L52.9617 21.5606H58.5712L60.9782 14.7835L63.4763 12.7034L65.4523 18.8319C66.0653 20.733 66.7016 21.5606 68.0643 21.5606H72.3564L67.9504 9.52734L78.6018 0.0214844Z" fill="#00B33C"/>
	</g>
	
</symbol><symbol id="chevron-right" viewBox="0 0 16 16">
	<path d="M4.9697 2.4697a.75.75 0 0 1 1.0606 0l5 5a.75.75 0 0 1 0 1.0606l-5 5a.75.75 0 0 1-1.0606-1.0606L9.4393 8 4.9697 3.5303a.75.75 0 0 1 0-1.0606Z" clip-rule="evenodd"/>
</symbol><symbol id="close-circle" viewBox="0 0 16 16">
	<path fill-rule="evenodd" clip-rule="evenodd" d="M8 16C12.4186 16 16 12.4186 16 8C16 3.58141 12.4186 0 8 0C3.58141 0 0 3.58141 0 8C0 12.4186 3.58141 16 8 16ZM4.46967 4.46968C4.76256 4.17678 5.23744 4.17678 5.53033 4.46968L8 6.93935L10.4697 4.46968C10.7626 4.17678 11.2374 4.17678 11.5303 4.46968C11.8232 4.76257 11.8232 5.23744 11.5303 5.53034L9.06066 8.00001L11.5303 10.4697C11.8232 10.7626 11.8232 11.2374 11.5303 11.5303C11.2374 11.8232 10.7626 11.8232 10.4697 11.5303L8 9.06067L5.53033 11.5303C5.23744 11.8232 4.76256 11.8232 4.46967 11.5303C4.17678 11.2374 4.17678 10.7626 4.46967 10.4697L6.93934 8.00001L4.46967 5.53034C4.17678 5.23744 4.17678 4.76257 4.46967 4.46968Z"/>
</symbol><symbol id="close" viewBox="0 0 24 24"><path d="M18.53 6.53a.75.75 0 0 0-1.06-1.06L12 10.94 6.53 5.47a.75.75 0 0 0-1.06 1.06L10.94 12l-5.47 5.47a.75.75 0 1 0 1.06 1.06L12 13.06l5.47 5.47a.75.75 0 1 0 1.06-1.06L13.06 12l5.47-5.47Z"/></symbol><symbol id="copy" viewBox="0 0 24 24">
	<path fill-rule="evenodd" clip-rule="evenodd" d="M5 3.5H12C12.8284 3.5 13.5 4.17157 13.5 5V12C13.5 12.8284 12.8284 13.5 12 13.5H5C4.17157 13.5 3.5 12.8284 3.5 12V5C3.5 4.17157 4.17157 3.5 5 3.5ZM2 5C2 3.34315 3.34315 2 5 2H12C13.6569 2 15 3.34315 15 5V12C15 13.6569 13.6569 15 12 15H5C3.34315 15 2 13.6569 2 12V5ZM17 8.25C16.5858 8.25 16.25 8.58579 16.25 9C16.25 9.41421 16.5858 9.75 17 9.75H18C19.2426 9.75 20.25 10.7574 20.25 12V18C20.25 19.2426 19.2426 20.25 18 20.25H12C10.7574 20.25 9.75 19.2426 9.75 18V17C9.75 16.5858 9.41421 16.25 9 16.25C8.58579 16.25 8.25 16.5858 8.25 17V18C8.25 20.0711 9.92893 21.75 12 21.75H18C20.0711 21.75 21.75 20.0711 21.75 18V12C21.75 9.92893 20.0711 8.25 18 8.25H17Z" fill="#000B26" fill-opacity="0.72"/>
</symbol><symbol id="cross" viewBox="0 0 24 24">
	<rect width="24" height="24" rx="4" fill="#000B26" fill-opacity="0.32"/>
	<path fill-rule="evenodd" clip-rule="evenodd" d="M18.5303 6.53033C18.8232 6.23744 18.8232 5.76256 18.5303 5.46967C18.2374 5.17678 17.7626 5.17678 17.4697 5.46967L12 10.9393L6.53033 5.46967C6.23744 5.17678 5.76256 5.17678 5.46967 5.46967C5.17678 5.76256 5.17678 6.23744 5.46967 6.53033L10.9393 12L5.46967 17.4697C5.17678 17.7626 5.17678 18.2374 5.46967 18.5303C5.76256 18.8232 6.23744 18.8232 6.53033 18.5303L12 13.0607L17.4697 18.5303C17.7626 18.8232 18.2374 18.8232 18.5303 18.5303C18.8232 18.2374 18.8232 17.7626 18.5303 17.4697L13.0607 12L18.5303 6.53033Z" fill="white"/>
</symbol><symbol id="danger" viewBox="0 0 16 16">
	<path fill-rule="evenodd" clip-rule="evenodd" d="M9.74544 1.37052C8.63439 0.876493 7.36561 0.876493 6.25456 1.37052C5.54381 1.68655 4.98322 2.28642 4.42272 3.07871C3.86455 3.86772 3.2414 4.94566 2.44459 6.32399L2.42539 6.35719L2.4062 6.3904C1.60938 7.76872 0.986217 8.84666 0.581113 9.72392C0.174324 10.6048 -0.0655532 11.3896 0.015771 12.1624C0.142899 13.3703 0.777286 14.4677 1.76121 15.1816C2.39063 15.6383 3.19111 15.8233 4.15839 15.9119C5.12166 16.0001 6.36797 16.0001 7.96159 16.0001H8H8.03841C9.63203 16.0001 10.8783 16.0001 11.8416 15.9119C12.8089 15.8233 13.6094 15.6383 14.2388 15.1816C15.2227 14.4677 15.8571 13.3703 15.9842 12.1624C16.0656 11.3896 15.8257 10.6048 15.4189 9.72392C15.0138 8.84667 14.3906 7.76875 13.5938 6.39045L13.5746 6.35719L13.5554 6.32396C12.7586 4.94564 12.1354 3.86771 11.5773 3.07871C11.0168 2.28642 10.4562 1.68655 9.74544 1.37052ZM6.83637 2.6756C7.57708 2.34625 8.42292 2.34625 9.16363 2.6756C9.51438 2.83156 9.89106 3.17091 10.409 3.90304C10.9248 4.63214 11.5157 5.65286 12.3358 7.07148C13.1559 8.49011 13.7456 9.51155 14.1199 10.3222C14.4958 11.1362 14.6018 11.6317 14.5616 12.013C14.4769 12.8184 14.0539 13.5499 13.398 14.0259C13.0874 14.2513 12.6048 14.4074 11.7109 14.4893C10.8208 14.5708 9.64022 14.5716 8 14.5716C6.35978 14.5716 5.1792 14.5708 4.28907 14.4893C3.39523 14.4074 2.91262 14.2513 2.60201 14.0259C1.94606 13.5499 1.52313 12.8184 1.43838 12.013C1.39825 11.6317 1.50417 11.1362 1.88008 10.3222C2.25442 9.51155 2.84409 8.49011 3.6642 7.07148C4.4843 5.65286 5.07522 4.63214 5.591 3.90304C6.10894 3.17091 6.48562 2.83156 6.83637 2.6756ZM8.71522 5.28575C8.71522 4.89126 8.39501 4.57146 8 4.57146C7.60499 4.57146 7.28478 4.89126 7.28478 5.28575V9.57151C7.28478 9.966 7.60499 10.2858 8 10.2858C8.39501 10.2858 8.71522 9.966 8.71522 9.57151V5.28575ZM7.99996 12.4287C8.39496 12.4287 8.71518 12.1089 8.71518 11.7144C8.71518 11.3199 8.39496 11.0001 7.99996 11.0001C7.60495 11.0001 7.28474 11.3199 7.28474 11.7144C7.28474 12.1089 7.60495 12.4287 7.99996 12.4287Z"/>
</symbol><symbol id="download" viewBox="0 0 24 24">
<path fill-rule="evenodd" clip-rule="evenodd" d="M12.75 4C12.75 3.58579 12.4142 3.25 12 3.25C11.5858 3.25 11.25 3.58579 11.25 4V14.1893L7.53033 10.4697C7.23744 10.1768 6.76256 10.1768 6.46967 10.4697C6.17678 10.7626 6.17678 11.2374 6.46967 11.5303L11.4697 16.5303C11.7626 16.8232 12.2374 16.8232 12.5303 16.5303L17.5303 11.5303C17.8232 11.2374 17.8232 10.7626 17.5303 10.4697C17.2374 10.1768 16.7626 10.1768 16.4697 10.4697L12.75 14.1893V4ZM4 19.25C3.58579 19.25 3.25 19.5858 3.25 20C3.25 20.4142 3.58579 20.75 4 20.75H20C20.4142 20.75 20.75 20.4142 20.75 20C20.75 19.5858 20.4142 19.25 20 19.25H4Z"/>
</symbol><symbol id="edit" viewBox="0 0 24 24">
	<path fill-rule="evenodd" clip-rule="evenodd" d="M15.7123 4.39857c.6834-.68342 1.7914-.68342 2.4748 0l1.4143 1.41421c.6834.68342.6834 1.79146 0 2.47488L9.70186 18.1872c-.1047.1047-.23805.176-.38324.2051l-3.53553.7071c-.2459.0491-.5001-.0278-.67742-.2051-.17732-.1774-.25429-.4316-.20511-.6775l.70711-3.5355c.02904-.1452.10041-.2785.20511-.3832l9.89952-9.89953Zm1.4142 1.06066c-.0976-.09763-.2559-.09763-.3536 0l-1.591 1.59099 1.7678 1.76777 1.591-1.59099c.0976-.09763.0976-.25593 0-.35356l-1.4142-1.41421ZM15.889 9.87865l-1.7677-1.76777-7.08729 7.08732-.44195 2.2097 2.20971-.442L15.889 9.87865Z"/>
</symbol><symbol id="eye-off" viewBox="0 0 24 24">
	<path fill-rule="evenodd" d="M20.03 3.97a.75.75 0 0 1 0 1.06l-1.639 1.64-1.06 1.061h-.001L7.852 17.21l-1.077 1.078L5.03 20.03a.75.75 0 0 1-1.06-1.06l1.639-1.64c-1.975-1.85-3.092-4.128-3.466-4.984a.86.86 0 0 1 0-.692C2.816 10.119 5.879 4 12 4c2.09 0 3.823.713 5.227 1.713L18.97 3.97a.75.75 0 0 1 1.06 0ZM8.557 19.296A8.652 8.652 0 0 0 12 20c6.122 0 9.185-6.119 9.857-7.654a.86.86 0 0 0 0-.692c-.28-.64-.974-2.073-2.13-3.528l-1.069 1.068A15.19 15.19 0 0 1 20.368 12c-.377.806-1.194 2.342-2.49 3.723C16.438 17.256 14.511 18.5 12 18.5a7.18 7.18 0 0 1-2.282-.366l-1.162 1.162ZM12 5.5c1.616 0 2.99.515 4.149 1.29l-2.625 2.625A2.983 2.983 0 0 0 12 9a3 3 0 0 0-2.584 4.524L6.67 16.269c-.19-.177-.373-.36-.548-.546-1.296-1.381-2.114-2.918-2.49-3.723.376-.806 1.194-2.342 2.49-3.723C7.563 6.743 9.49 5.5 12 5.5Z" clip-rule="evenodd"/>
</symbol><symbol id="eye" viewBox="0 0 24 24">
	<path fill-rule="evenodd" d="M17.878 8.277c1.296 1.381 2.113 2.918 2.49 3.723-.377.806-1.194 2.342-2.49 3.723C16.438 17.256 14.511 18.5 12 18.5c-2.51 0-4.438-1.242-5.877-2.777-1.296-1.381-2.114-2.918-2.49-3.723.376-.806 1.194-2.342 2.49-3.723C7.563 6.743 9.49 5.5 12 5.5c2.511 0 4.438 1.242 5.878 2.777Zm3.979 3.377a.86.86 0 0 1 0 .692C21.185 13.881 18.122 20 12 20c-6.121 0-9.184-6.119-9.856-7.654a.86.86 0 0 1 0-.692C2.816 10.119 5.879 4 12 4c6.122 0 9.185 6.119 9.857 7.654ZM12 15a3 3 0 1 0 0-6 3 3 0 0 0 0 6Z" clip-rule="evenodd"/>
</symbol><symbol id="help" viewBox="0 0 20 20"><path fill-rule="evenodd" clip-rule="evenodd" d="M0 10C0 4.477 4.477 0 10 0s10 4.477 10 10-4.477 10-10 10S0 15.523 0 10Z" fill="#000B26" fill-opacity=".08"/><path d="M10 7a1 1 0 1 0 0-2 1 1 0 0 0 0 2ZM10 15a1 1 0 0 0 1-1V9a1 1 0 1 0-2 0v5a1 1 0 0 0 1 1Z"/></symbol><symbol id="home" viewBox="0 0 24 24">
	<path d="M10.25 15.0002V20.5002H13.75V15.0002C13.75 14.8622 13.6381 14.7502 13.5 14.7502H10.5C10.3619 14.7502 10.25 14.8622 10.25 15.0002ZM8.75 20.5002V15.0002C8.75 14.0337 9.5335 13.2502 10.5 13.2502H13.5C14.4665 13.2502 15.25 14.0337 15.25 15.0002V20.5002H19C19.2761 20.5002 19.5 20.2764 19.5 20.0002V11.9784C19.5 11.8241 19.4288 11.6784 19.307 11.5837L12 5.90052L4.69303 11.5837C4.57124 11.6784 4.5 11.8241 4.5 11.9784V20.0002C4.5 20.2764 4.72386 20.5002 5 20.5002H8.75ZM5 22.0002C3.89543 22.0002 3 21.1048 3 20.0002V11.9784C3 11.3612 3.28495 10.7786 3.77212 10.3997L11.3861 4.47774C11.7472 4.19687 12.2528 4.19687 12.6139 4.47774L20.2279 10.3997C20.7151 10.7786 21 11.3612 21 11.9784V20.0002C21 21.1048 20.1046 22.0002 19 22.0002H5Z"/>
</symbol><symbol id="icon-bag-revert" viewBox="0 0 32 32"><rect width="32" height="32" rx="8" fill="#2AABEE"/><path d="M8.463 15.753c.14-1.813.21-2.72.804-3.27.595-.552 1.505-.552 3.323-.552h6.82c1.819 0 2.728 0 3.323.551.595.551.665 1.458.804 3.27l.398 5.174c.16 2.087.24 3.13-.374 3.793-.614.663-1.66.663-3.753.663h-7.616c-2.093 0-3.14 0-3.753-.663-.615-.663-.534-1.707-.374-3.793l.398-5.173Z" fill="#fff"/><path fill-rule="evenodd" clip-rule="evenodd" d="M15.967 6.758h.066c.454 0 .846 0 1.17.022.341.023.682.074 1.02.214.76.315 1.364.92 1.68 1.68.14.337.19.679.214 1.02.022.324.022.716.022 1.17v4.27a1.035 1.035 0 0 1-2.07 0v-4.237c0-.497 0-.817-.017-1.062-.016-.236-.043-.326-.061-.369a1.035 1.035 0 0 0-.56-.56c-.043-.018-.133-.045-.37-.061A17.5 17.5 0 0 0 16 8.827c-.496 0-.817 0-1.062.018-.236.016-.326.043-.369.061a1.035 1.035 0 0 0-.56.56c-.018.043-.045.133-.061.369a17.44 17.44 0 0 0-.017 1.062v4.236a1.035 1.035 0 1 1-2.07 0v-4.27c0-.453 0-.845.022-1.17.024-.34.075-.682.214-1.019.316-.76.92-1.365 1.68-1.68.338-.14.679-.19 1.02-.214.324-.022.716-.022 1.17-.022Z" fill="#fff"/></symbol><symbol id="icon-bag" viewBox="0 0 40 40">
  <rect width="40" height="40" rx="12" fill="white"/>
  <path d="M10.5788 19.6909C10.7531 17.4248 10.8403 16.2917 11.5841 15.6029C12.3279 14.9141 13.4643 14.9141 15.7371 14.9141H24.2628C26.5356 14.9141 27.672 14.9141 28.4159 15.6029C29.1597 16.2917 29.2468 17.4248 29.4212 19.6909L29.9186 26.1578C30.1192 28.7658 30.2195 30.0698 29.4517 30.899C28.6838 31.7282 27.376 31.7282 24.7603 31.7282H15.2397C12.624 31.7282 11.3161 31.7282 10.5483 30.899C9.7804 30.0698 9.88071 28.7658 10.0813 26.1579L10.5788 19.6909Z" fill="#2AABEE"/>
  <path fill-rule="evenodd" clip-rule="evenodd" d="M19.9586 8.44721H20.0413C20.6087 8.44719 21.0982 8.44718 21.5034 8.47482C21.93 8.50393 22.3567 8.56795 22.7783 8.74257C23.729 9.13638 24.4844 9.89175 24.8782 10.8425C25.0528 11.2641 25.1168 11.6908 25.1459 12.1174C25.1736 12.5225 25.1736 13.0121 25.1735 13.5794L25.1735 18.9166C25.1735 19.6309 24.5945 20.21 23.8802 20.21C23.1658 20.21 22.5868 19.6309 22.5868 18.9166V13.6208C22.5868 13.0004 22.5861 12.5999 22.5652 12.2934C22.545 11.9986 22.5106 11.8862 22.4883 11.8324C22.357 11.5155 22.1053 11.2637 21.7883 11.1324C21.7345 11.1101 21.6222 11.0757 21.3273 11.0556C21.0208 11.0347 20.6203 11.034 20 11.034C19.3796 11.034 18.9792 11.0347 18.6727 11.0556C18.3778 11.0757 18.2655 11.1101 18.2116 11.1324C17.8947 11.2637 17.6429 11.5155 17.5117 11.8324C17.4894 11.8862 17.4549 11.9986 17.4348 12.2934C17.4139 12.5999 17.4132 13.0004 17.4132 13.6208V18.9166C17.4132 19.6309 16.8341 20.21 16.1198 20.21C15.4055 20.21 14.8264 19.6309 14.8264 18.9166L14.8264 13.5794C14.8264 13.0121 14.8264 12.5225 14.854 12.1174C14.8831 11.6908 14.9472 11.2641 15.1218 10.8425C15.5156 9.89175 16.271 9.13638 17.2217 8.74257C17.6433 8.56795 18.07 8.50393 18.4966 8.47482C18.9017 8.44718 19.3913 8.44719 19.9586 8.44721Z" fill="#2AABEE"/>
</symbol><symbol id="info" viewBox="0 0 24 24">
	<path fill="#fff" fill-rule="evenodd" d="M2 12C2 6.4771 6.4771 2 12 2c5.5228 0 10 4.4771 10 10 0 5.5228-4.4772 10-10 10-5.5229 0-10-4.4772-10-10Z" clip-rule="evenodd"/>
	<path stroke="#000B26" stroke-opacity=".16" stroke-width="1.5" d="M2.75 12c0-5.1086 4.1414-9.25 9.25-9.25s9.25 4.1414 9.25 9.25-4.1414 9.25-9.25 9.25S2.75 17.1086 2.75 12Z"/>
	<path fill="#000B26" fill-opacity=".48" d="M12 9c.5523 0 1-.4477 1-1s-.4477-1-1-1-1 .4477-1 1 .4477 1 1 1Zm0 8c.5523 0 1-.4477 1-1v-5c0-.5523-.4477-1-1-1s-1 .4477-1 1v5c0 .5523.4477 1 1 1Z"/>
</symbol><symbol id="link" viewBox="0 0 24 24">
	<path fill-rule="evenodd" clip-rule="evenodd" d="M3.75 12C3.75 9.65279 5.65279 7.75 8 7.75H10C10.4142 7.75 10.75 7.41421 10.75 7C10.75 6.58579 10.4142 6.25 10 6.25H8C4.82436 6.25 2.25 8.82436 2.25 12C2.25 15.1756 4.82436 17.75 8 17.75H10C10.4142 17.75 10.75 17.4142 10.75 17C10.75 16.5858 10.4142 16.25 10 16.25H8C5.65279 16.25 3.75 14.3472 3.75 12ZM14 6.25C13.5858 6.25 13.25 6.58579 13.25 7C13.25 7.41421 13.5858 7.75 14 7.75H16C18.3472 7.75 20.25 9.65279 20.25 12C20.25 14.3472 18.3472 16.25 16 16.25H14C13.5858 16.25 13.25 16.5858 13.25 17C13.25 17.4142 13.5858 17.75 14 17.75H16C19.1756 17.75 21.75 15.1756 21.75 12C21.75 8.82436 19.1756 6.25 16 6.25H14ZM8 11.25C7.58579 11.25 7.25 11.5858 7.25 12C7.25 12.4142 7.58579 12.75 8 12.75H16C16.4142 12.75 16.75 12.4142 16.75 12C16.75 11.5858 16.4142 11.25 16 11.25H8Z" fill="#000B26" fill-opacity="0.8"/>
</symbol><symbol id="logout" viewBox="0 0 24 24"><path fill-rule="evenodd" clip-rule="evenodd" d="M6 2.25A3.75 3.75 0 0 0 2.25 6v12A3.75 3.75 0 0 0 6 21.75h6A3.75 3.75 0 0 0 15.75 18v-1a.75.75 0 0 0-1.5 0v1A2.25 2.25 0 0 1 12 20.25H6A2.25 2.25 0 0 1 3.75 18V6A2.25 2.25 0 0 1 6 3.75h6A2.25 2.25 0 0 1 14.25 6v1a.75.75 0 0 0 1.5 0V6A3.75 3.75 0 0 0 12 2.25H6Zm12.548 6.238a.75.75 0 0 0-1.096 1.024 65.148 65.148 0 0 0 1.7 1.738H9a.75.75 0 0 0 0 1.5h10.152a65.324 65.324 0 0 0-1.7 1.738.75.75 0 0 0 1.096 1.024 68.481 68.481 0 0 1 1.957-1.99 101.71 101.71 0 0 1 .936-.907l.056-.053.015-.013.003-.004h.001a.75.75 0 0 0 0-1.09l-.004-.004-.015-.013-.055-.053-.211-.202c-.18-.173-.433-.418-.726-.706a68.591 68.591 0 0 1-1.957-1.99Z"/></symbol><symbol id="options-vertical" viewBox="0 0 24 24">
	<path fill-rule="evenodd" clip-rule="evenodd" d="M12 7.5c-.8284 0-1.5-.67157-1.5-1.5s.6716-1.5 1.5-1.5 1.5.67157 1.5 1.5-.6716 1.5-1.5 1.5Zm0 6c-.8284 0-1.5-.6716-1.5-1.5s.6716-1.5 1.5-1.5 1.5.6716 1.5 1.5-.6716 1.5-1.5 1.5ZM10.5 18c0 .8284.6716 1.5 1.5 1.5s1.5-.6716 1.5-1.5-.6716-1.5-1.5-1.5-1.5.6716-1.5 1.5Z"/>
</symbol><symbol id="plus" viewBox="0 0 24 24">
	<path d="M12.75 6C12.75 5.58579 12.4142 5.25 12 5.25C11.5858 5.25 11.25 5.58579 11.25 6V11.25H6C5.58579 11.25 5.25 11.5858 5.25 12C5.25 12.4142 5.58579 12.75 6 12.75H11.25V18C11.25 18.4142 11.5858 18.75 12 18.75C12.4142 18.75 12.75 18.4142 12.75 18V12.75H18C18.4142 12.75 18.75 12.4142 18.75 12C18.75 11.5858 18.4142 11.25 18 11.25H12.75V6Z"/>
</symbol><symbol id="russian-post" viewBox="0 0 154 22">
	<path d="M0 21.5406V1.08294H11.2032V21.5406H8.05411V4.04952H3.16203V21.5406H0ZM19.7238 0.623508C17.8836 0.623508 16.4387 1.59487 15.3825 3.53759C14.3328 5.49344 13.808 8.06623 13.808 11.2428C13.808 14.5245 14.3134 17.1498 15.3307 19.0859C16.335 21.0286 17.7929 22 19.7173 22C21.6807 22 23.2163 20.9827 24.3178 18.9481C25.3675 17.0054 25.8989 14.426 25.8989 11.2166C25.8989 8.03998 25.3546 5.48031 24.266 3.53759C23.1774 1.59487 21.6612 0.623508 19.7238 0.623508ZM16.808 11.2691C16.808 9.02446 17.0542 7.19988 17.5532 5.79535C18.0326 4.38425 18.7584 3.67542 19.7238 3.67542C20.7929 3.67542 21.564 4.39737 22.0435 5.8216C22.4712 7.07518 22.685 8.87351 22.685 11.2166C22.685 13.4743 22.4388 15.3252 21.9398 16.7757C21.4474 18.2196 20.7087 18.9415 19.7238 18.9415C18.7713 18.9415 18.0521 18.2196 17.5532 16.7494C17.0125 14.9758 16.7608 13.1247 16.808 11.2691ZM35.3396 1.08294H38.5016V21.5406H35.3396V11.466H32.4886C31.2082 11.4981 29.967 11.0169 29.035 10.1271C28.5694 9.72213 28.1978 9.21799 27.9469 8.6507C27.696 8.08341 27.5719 7.46697 27.5835 6.84547V1.07637H30.7197V6.44511C30.7197 6.98986 30.8752 7.42959 31.1927 7.75776C31.6268 8.19093 32.2812 8.40752 33.1495 8.40752H35.3396V1.08294ZM46.627 21.5406H43.4844V4.10859H40.4779V1.0895H49.6594V4.10859H46.627V21.5406ZM52.0958 1.08294H57.2017C58.7114 1.08294 59.8972 1.45048 60.7654 2.18556C61.854 3.10442 62.3983 4.54833 62.3983 6.53043L64.0311 21.5406H60.8691L59.8713 11.3544H54.9273L54.5839 21.5406H51.4284L52.0893 1.08294H52.0958ZM54.9857 8.35501H59.5149C59.3658 6.77983 59.1131 5.69033 58.7568 5.09964C58.3291 4.41706 57.6164 4.08234 56.6185 4.08234H55.1023L54.9857 8.35501ZM75.3769 21.1796V0.721957H78.9406C81.3251 0.721957 83.0422 1.77864 84.0984 3.88544C84.8022 5.34274 85.1511 6.94966 85.1157 8.5716C85.1157 11.1116 84.701 13.0477 83.8651 14.3669C83.1329 15.4958 82.2063 16.0668 81.0789 16.0668C80.6226 16.0604 80.1721 15.9619 79.7538 15.7771C79.3354 15.5923 78.9577 15.3248 78.6426 14.9905V21.1796H75.3769ZM78.6167 3.51134V9.82518C78.6167 10.8097 78.7657 11.571 79.0702 12.1092C79.3553 12.6342 79.7182 12.8968 80.1394 12.8968C80.5864 12.8968 80.9687 12.6014 81.2927 12.0042C81.6167 11.4069 81.7722 10.5537 81.7722 9.44451C81.7722 7.39678 81.526 5.88723 81.0206 4.92243C80.5217 3.9642 79.8283 3.47852 78.9406 3.47852C78.8333 3.49547 78.7252 3.50642 78.6167 3.51134ZM92.6385 0.26253C90.7983 0.26253 89.3533 1.23389 88.2971 3.17661C87.2475 5.13902 86.7226 7.70525 86.7226 10.8819C86.7226 14.17 87.228 16.7888 88.2518 18.7249C89.2496 20.6677 90.714 21.639 92.6385 21.639C94.5953 21.639 96.1245 20.6217 97.2325 18.5871C98.2822 16.6444 98.8135 14.065 98.8135 10.8556C98.8135 7.679 98.2692 5.11933 97.1806 3.17661C96.0921 1.23389 94.5758 0.26253 92.6385 0.26253ZM89.7226 10.9081C89.7226 8.66348 89.9753 6.8389 90.4678 5.43437C90.9473 4.02327 91.6665 3.31444 92.6385 3.31444C93.7076 3.31444 94.4787 4.0364 94.9581 5.46062C95.3858 6.7142 95.5996 8.51253 95.5996 10.8556C95.5996 13.1134 95.3534 14.9642 94.8545 16.4147C94.3555 17.8652 93.6233 18.5871 92.6385 18.5871C91.686 18.5871 90.9667 17.852 90.4678 16.3884C89.9276 14.6147 89.6759 12.7637 89.7226 10.9081ZM104.146 11.0197C104.146 13.1856 104.729 14.9576 105.909 16.3359C107.172 17.7995 108.941 18.5346 111.222 18.5346V21.8097C107.904 21.8097 105.3 20.7792 103.414 18.7249C101.613 16.7691 100.712 14.2094 100.712 11.0459C100.712 7.77745 101.541 5.21122 103.207 3.34726C105.021 1.29296 107.678 0.26253 111.17 0.26253V3.54415C108.837 3.54415 107.056 4.26611 105.831 5.71002C104.703 7.02267 104.146 8.79475 104.146 11.0263V11.0197ZM116.425 11.0197C116.425 13.1856 117.008 14.9576 118.187 16.3359C119.444 17.7995 121.22 18.5346 123.501 18.5346V21.8097C120.183 21.8097 117.578 20.7792 115.693 18.7249C113.891 16.7691 112.991 14.2094 112.991 11.0459C112.991 7.77745 113.82 5.21122 115.479 3.34726C117.3 1.29296 119.956 0.26253 123.449 0.26253V3.54415C121.116 3.54415 119.334 4.26611 118.11 5.71002C116.982 7.02267 116.425 8.79475 116.425 11.0263V11.0197ZM137.607 0L138.43 21.1796H135.216L134.684 7.2852L129.287 12.7655L129.313 21.1796H126.105V0.721957H129.313V8.27625L137.607 0ZM153.177 0L154 21.1796H150.786L150.248 7.2852L144.857 12.7655L144.883 21.1796H141.676V0.721957H144.883V8.27625L153.177 0Z" fill="#1E42FB"/>
</symbol><symbol id="search" viewBox="0 0 24 24">
	<path fill-rule="evenodd" clip-rule="evenodd" d="M17.5 11c0 3.5899-2.9101 6.5-6.5 6.5-3.58985 0-6.5-2.9101-6.5-6.5 0-3.58985 2.91015-6.5 6.5-6.5 3.5899 0 6.5 2.91015 6.5 6.5Zm-1.3982 6.1624C14.717 18.3101 12.9391 19 11 19c-4.41828 0-8-3.5817-8-8 0-4.41828 3.58172-8 8-8 4.4183 0 8 3.58172 8 8 0 1.9391-.6899 3.717-1.8376 5.1018l4.3679 4.3679c.2929.2929.2929.7677 0 1.0606-.2929.2929-.7677.2929-1.0606 0l-4.3679-4.3679Z"/>
</symbol><symbol id="settings" viewBox="0 0 24 24"><path d="M12.006 2.581h-.012l-.52.004a2.25 2.25 0 0 0-2.098 1.488l-.383 1.063c-.068.186-.226.367-.47.5-.073.04-.145.082-.217.125-.233.138-.463.182-.654.149l-1.178-.208a2.25 2.25 0 0 0-2.33 1.076l-.298.507-.006.01-.206.365a2.25 2.25 0 0 0 .211 2.529l.723.889c.124.152.197.378.187.652a7.362 7.362 0 0 0 0 .54c.01.274-.063.5-.187.652l-.723.89a2.25 2.25 0 0 0-.211 2.528l.206.364.006.01.299.508a2.25 2.25 0 0 0 2.33 1.075l1.177-.207c.19-.034.42.011.654.15l.218.124c.243.133.402.314.469.5l.383 1.063a2.25 2.25 0 0 0 2.099 1.488l.519.004h.012l.52-.005a2.25 2.25 0 0 0 2.099-1.487l.383-1.063c.067-.186.225-.367.468-.5.074-.04.146-.082.218-.125.233-.138.463-.183.654-.149l1.178.207a2.25 2.25 0 0 0 2.33-1.075l.298-.508.006-.01.206-.364a2.25 2.25 0 0 0-.211-2.529l-.723-.889c-.124-.152-.197-.378-.187-.652a7.317 7.317 0 0 0 0-.54c-.01-.274.063-.5.187-.652l.723-.89a2.25 2.25 0 0 0 .211-2.528l-.206-.364-.006-.01-.299-.508a2.25 2.25 0 0 0-2.33-1.076l-1.177.208c-.19.033-.42-.011-.654-.15a7.346 7.346 0 0 0-.218-.124c-.243-.133-.401-.314-.469-.5l-.383-1.063a2.25 2.25 0 0 0-2.098-1.488l-.52-.004Zm-.52 1.504L12 4.081l.514.004a.75.75 0 0 1 .7.496l.382 1.063c.217.602.669 1.04 1.16 1.308.058.032.116.065.173.099.472.28 1.063.445 1.68.336l1.177-.207a.75.75 0 0 1 .776.358l.296.503.203.359a.75.75 0 0 1-.07.843l-.723.889c-.4.492-.542 1.098-.522 1.653a5.884 5.884 0 0 1 0 .43c-.02.555.122 1.161.522 1.653l.723.89a.75.75 0 0 1 .07.842l-.203.36-.296.502a.75.75 0 0 1-.776.358l-1.178-.207c-.616-.109-1.207.056-1.679.336a5.893 5.893 0 0 1-.173.099c-.491.269-.943.706-1.16 1.308l-.383 1.063a.75.75 0 0 1-.7.496l-.513.004-.514-.004a.75.75 0 0 1-.7-.496l-.382-1.064c-.217-.602-.669-1.038-1.16-1.307a5.837 5.837 0 0 1-.173-.099c-.472-.28-1.063-.445-1.68-.336l-1.177.207a.75.75 0 0 1-.776-.358l-.296-.503-.203-.359a.75.75 0 0 1 .07-.843l.723-.889c.4-.492.542-1.098.522-1.653a5.862 5.862 0 0 1 0-.43c.02-.556-.122-1.162-.522-1.653l-.723-.89a.75.75 0 0 1-.07-.842l.203-.36.296-.502a.75.75 0 0 1 .776-.358l1.178.207c.616.109 1.207-.056 1.68-.336a5.75 5.75 0 0 1 .172-.099c.491-.269.943-.706 1.16-1.308l.383-1.063a.75.75 0 0 1 .7-.496ZM9.75 12a2.25 2.25 0 1 1 4.5 0 2.25 2.25 0 0 1-4.5 0ZM12 8.25a3.75 3.75 0 1 0 0 7.5 3.75 3.75 0 0 0 0-7.5Z"/></symbol><symbol id="success" viewBox="0 0 16 16">
	<path fill-rule="evenodd" clip-rule="evenodd" d="M13.7574 4.19771C14.0624 4.47795 14.0825 4.9524 13.8023 5.25742L6.91167 12.7574C6.77168 12.9098 6.57497 12.9976 6.36808 13C6.16119 13.0024 5.96249 12.9192 5.81901 12.7701L2.20964 9.02011C1.92239 8.72167 1.93146 8.24688 2.2299 7.95964C2.52833 7.67239 3.00312 7.68147 3.29037 7.9799L6.34667 11.1553L12.6977 4.24259C12.9779 3.93756 13.4524 3.91747 13.7574 4.19771Z"/>
</symbol><symbol id="toast-error" viewBox="0 0 24 25">
	<path d="M18 20.6099h-2.5714c-1.7143 1.1924-5.3572 3.6964-6.21432 4.1734-.7143.3975-1.28571.1987-1.49999-.1987C7.5 24.1871 7.5 20.6099 7.5 20.6099c-1.14286 0-3.77143-.3975-5.14286-1.9874C.642857 16.6352 0 13.5641 0 9.282c0-4.28206 1.79571-6.30149 6-7.28206 3.75234-.87516 10.8523-1.686816 14-.67301 2 .64415 4 2.1361 4 9.94237 0 6.9955-4 9.3406-6 9.3406Z" fill="#FF4545"/>
	<ellipse cx="12.0006" cy="16.3429" rx="1.28572" ry="1.23406" fill="#fff"/>
	<path d="M10.7817 6.52042c-.0363-.69804.5199-1.28397 1.2189-1.28397.699 0 1.2552.58592 1.2188 1.28397l-.3171 6.08708c-.025.4798-.4213.856-.9017.856-.4805 0-.8768-.3762-.9018-.856l-.3171-6.08708Z" fill="#fff"/>
</symbol><symbol id="toast-success" viewBox="0 0 24 24">
	<path d="M18 19.636h-2.5714c-1.7143 1.1853-5.3572 3.6745-6.21432 4.1486-.7143.3951-1.28571.1976-1.49999-.1975C7.5 23.192 7.5 19.636 7.5 19.636c-1.14286 0-3.77143-.3951-5.14286-1.9755C.642857 15.685 0 12.6322 0 8.37556c0-4.25659 1.79571-6.26401 6-7.23874C9.75234.266863 16.8523-.539964 20 .467808c2 .640322 4 2.123392 4 9.883292 0 6.9538-4 9.2849-6 9.2849Z" fill="#18BF7D"/>
	<path fill-rule="evenodd" clip-rule="evenodd" d="M16.7304 7.19795c.3281.29094.3614.79635.0743 1.12886l-5.5264 6.39999c-.1478.1712-.3605.2705-.585.2731-.2244.0027-.4394-.0916-.5911-.2593l-2.89469-3.2c-.29462-.3257-.27291-.8318.0485-1.1303.32141-.2986.8208-.2766 1.11543.0491l2.29906 2.5416 4.9459-5.72779c.2871-.33251.7859-.36621 1.114-.07526Z" fill="#fff"/>
</symbol><symbol id="trash" viewBox="0 0 24 24">
	<path fill-rule="evenodd" clip-rule="evenodd" d="M9.16986 4.5076c.19697-.4596.6489-.7576 1.14894-.7576h3.3624c.5 0 .952.298 1.1489.7576l.6396 1.49228H8.53031l.63955-1.49228Zm-2.2715 1.49228.89278-2.08316C8.22448 2.90559 9.21871 2.25 10.3188 2.25h3.3624c1.1001 0 2.0943.65559 2.5277 1.66672l.8927 2.08316H20c.4142 0 .75.33579.75.75 0 .41422-.3358.75-.75.75h-1.25V18.9197c0 1.5188-1.2312 2.75-2.75 2.75H8c-1.51878 0-2.75-1.2312-2.75-2.75V7.49988H4c-.41421 0-.75-.33578-.75-.75 0-.41421.33579-.75.75-.75h2.89836Zm-.14836 1.5h10.5V18.9197c0 .6903-.5596 1.25-1.25 1.25H8c-.69036 0-1.25-.5597-1.25-1.25V7.49988ZM10 9.75c.4142 0 .75.3358.75.75v6c0 .4142-.3358.75-.75.75-.41421 0-.75-.3358-.75-.75v-6c0-.4142.33579-.75.75-.75Zm4.75.75c0-.4142-.3358-.75-.75-.75s-.75.3358-.75.75v6c0 .4142.3358.75.75.75s.75-.3358.75-.75v-6Z"/>
</symbol></svg>